M48
;Layer_Color=9474304
;FILE_FORMAT=2:5
INCH,LZ
;TYPE=PLATED
T1F00S00C0.00787
T2F00S00C0.02800
T3F00S00C0.03543
%
T01
X0290012Y033148
X0292276Y0335221
X0287748
X0290012Y0338961
T02
X024524Y030826
X0238Y0318
X026874Y031376
X026824Y032776
X026974Y033576
X02755Y034
X03005Y0342
X03025Y0333
X0322Y0361
X0330453Y0353787
T03
X03545Y03095
X0201Y03085
Y03185
Y03285
Y03385
Y03485
Y03585
X03545Y03595
Y03495
Y03395
Y03295
Y03195
M30
